<?xml version="1.0" encoding="UTF-8" ?>
<!DOCTYPE svg PUBLIC "-//W3C//DTD SVG 1.1//EN" "http://www.w3.org/Graphics/SVG/1.1/DTD/svg11.dtd">
<svg width="400pt" height="400pt" viewBox="0 0 400 400" version="1.1" xmlns="http://www.w3.org/2000/svg">
<g id="#eee6abff">
<path fill="#eee6ab" opacity="1.00" d=" M 155.29 28.15 C 188.83 28.17 222.38 28.17 255.92 28.16 C 255.90 30.24 255.91 32.32 255.95 34.40 C 246.49 34.41 237.04 34.41 227.58 34.40 C 227.64 80.90 227.60 127.39 227.60 173.89 C 226.75 173.43 225.90 172.98 225.05 172.53 C 212.31 180.48 200.60 189.99 187.63 197.58 C 187.61 143.19 187.57 88.80 187.65 34.42 C 176.85 34.38 166.05 34.44 155.26 34.38 C 155.29 32.31 155.29 30.23 155.29 28.15 Z" />
</g>
<g id="#e5dea1ff">
<path fill="#e5dea1" opacity="1.00" d=" M 225.05 172.53 C 225.90 172.98 226.75 173.43 227.60 173.89 C 227.59 180.42 227.53 186.96 227.52 193.49 C 224.21 194.10 220.63 194.69 218.17 197.21 C 212.50 202.44 205.59 205.97 199.28 210.32 C 195.37 212.53 192.39 216.54 187.69 217.15 C 187.67 210.62 187.61 204.10 187.63 197.58 C 200.60 189.99 212.31 180.48 225.05 172.53 Z" />
</g>
<g id="#d8d191ff">
<path fill="#d8d191" opacity="1.00" d=" M 218.17 197.21 C 220.63 194.69 224.21 194.10 227.52 193.49 C 227.54 201.57 227.45 209.64 227.46 217.71 C 226.90 217.64 225.80 217.50 225.24 217.43 C 218.06 220.91 211.94 226.11 205.37 230.56 C 200.38 234.27 194.96 237.33 190.01 241.09 C 189.25 239.99 188.50 238.89 187.74 237.80 C 187.75 230.92 187.68 224.03 187.69 217.15 C 192.39 216.54 195.37 212.53 199.28 210.32 C 205.59 205.97 212.50 202.44 218.17 197.21 Z" />
</g>
<g id="#c8c181ff">
<path fill="#c8c181" opacity="1.00" d=" M 205.37 230.56 C 211.94 226.11 218.06 220.91 225.24 217.43 C 225.80 217.50 226.90 217.64 227.46 217.71 C 227.44 228.04 227.39 238.38 227.35 248.71 C 219.43 252.30 212.99 258.20 205.52 262.52 C 200.24 265.77 195.79 270.17 190.47 273.37 C 190.30 272.79 189.96 271.61 189.80 271.02 C 186.56 260.23 188.17 248.89 187.74 237.80 C 188.50 238.89 189.25 239.99 190.01 241.09 C 194.96 237.33 200.38 234.27 205.37 230.56 Z" />
</g>
<g id="#b9b373ff">
<path fill="#b9b373" opacity="1.00" d=" M 205.52 262.52 C 212.99 258.20 219.43 252.30 227.35 248.71 C 227.38 258.84 227.27 268.96 227.30 279.09 C 226.58 278.08 225.86 277.08 225.14 276.08 C 221.82 278.86 218.33 281.50 214.26 283.06 C 213.06 285.24 211.37 287.14 208.88 287.81 C 205.45 288.63 204.01 292.86 200.20 292.69 L 198.86 292.67 C 195.93 286.29 192.54 280.11 190.47 273.37 C 195.79 270.17 200.24 265.77 205.52 262.52 Z" />
</g>
<g id="#ada76aff">
<path fill="#ada76a" opacity="1.00" d=" M 225.14 276.08 C 225.86 277.08 226.58 278.08 227.30 279.09 C 227.33 284.31 227.22 289.53 227.33 294.75 C 226.60 294.64 225.87 294.52 225.15 294.41 C 222.07 298.25 216.38 298.35 213.56 302.49 C 212.00 304.90 209.76 306.55 206.87 306.86 L 206.50 306.96 C 204.26 302.18 201.82 297.50 199.42 292.81 L 200.20 292.69 C 204.01 292.86 205.45 288.63 208.88 287.81 C 211.37 287.14 213.06 285.24 214.26 283.06 C 218.33 281.50 221.82 278.86 225.14 276.08 Z" />
</g>
<g id="#a59f65ff">
<path fill="#a59f65" opacity="1.00" d=" M 225.15 294.41 C 225.87 294.52 226.60 294.64 227.33 294.75 C 226.43 301.68 226.99 308.70 225.75 315.59 C 224.11 317.22 222.68 319.25 220.43 320.09 C 217.24 321.40 214.59 323.66 211.61 325.36 C 211.24 320.39 209.45 315.70 208.17 310.93 C 207.70 309.59 206.26 308.39 206.87 306.86 C 209.76 306.55 212.00 304.90 213.56 302.49 C 216.38 298.35 222.07 298.25 225.15 294.41 Z" />
<path fill="#a59f65" opacity="1.00" d=" M 187.93 312.86 C 198.31 320.08 200.51 336.92 191.89 346.25 C 191.71 346.67 191.36 347.52 191.19 347.94 C 189.32 349.02 187.47 350.14 185.77 351.49 C 178.67 354.47 170.13 353.46 164.31 348.26 C 164.06 347.89 163.55 347.14 163.30 346.77 C 160.93 344.01 160.06 340.29 157.56 337.63 C 155.96 337.68 154.36 337.72 152.77 337.73 C 156.56 332.83 162.87 331.36 167.70 327.83 C 174.40 322.79 181.69 318.52 187.93 312.86 Z" />
</g>
<g id="#b0aa6cff">
<path fill="#b0aa6c" opacity="1.00" d=" M 164.98 307.86 C 172.84 305.83 181.64 307.67 187.93 312.86 C 181.69 318.52 174.40 322.79 167.70 327.83 C 162.87 331.36 156.56 332.83 152.77 337.73 C 151.28 339.92 151.92 342.66 151.94 345.13 C 152.87 347.43 153.44 349.90 154.80 352.00 C 153.20 352.19 151.60 352.38 150.01 352.59 L 148.86 352.72 C 145.00 345.12 143.78 336.37 145.85 328.07 C 147.25 324.02 149.05 320.03 151.77 316.68 C 155.31 312.64 160.02 309.80 164.98 307.86 Z" />
</g>
<g id="#999460ff">
<path fill="#999460" opacity="1.00" d=" M 220.43 320.09 C 222.68 319.25 224.11 317.22 225.75 315.59 C 225.28 320.47 224.16 325.24 223.29 330.06 C 220.50 340.26 216.22 350.26 209.30 358.36 C 204.28 364.11 197.48 368.10 190.16 370.12 C 185.18 371.72 179.92 371.28 174.77 371.19 C 167.31 369.92 160.44 366.23 155.09 360.90 C 152.95 358.23 150.79 355.58 148.89 352.73 L 150.01 352.59 C 151.60 352.38 153.20 352.19 154.80 352.00 C 158.84 358.59 165.69 362.98 173.04 365.03 C 176.36 365.31 179.63 366.10 182.97 366.30 C 189.38 365.90 196.01 364.08 200.73 359.50 C 202.26 357.81 203.58 355.95 205.07 354.24 C 208.45 349.25 210.28 343.41 211.37 337.54 C 211.76 333.49 211.43 329.42 211.61 325.36 C 214.59 323.66 217.24 321.40 220.43 320.09 Z" />
</g>
</svg>
