<?xml version="1.0" encoding="UTF-8" ?>
<!DOCTYPE svg PUBLIC "-//W3C//DTD SVG 1.1//EN" "http://www.w3.org/Graphics/SVG/1.1/DTD/svg11.dtd">
<svg width="400pt" height="400pt" viewBox="0 0 400 400" version="1.1" xmlns="http://www.w3.org/2000/svg">
<g id="#eee6abff">
<path fill="#eee6ab" opacity="1.00" d=" M 202.31 152.04 C 211.68 152.06 221.04 152.07 230.41 152.03 L 230.48 153.29 C 227.77 153.28 225.06 153.27 222.36 153.30 C 222.32 174.20 222.37 195.09 222.33 215.99 C 221.87 215.59 220.96 214.80 220.50 214.40 C 217.98 216.11 215.51 217.89 212.82 219.33 L 212.11 219.17 C 210.85 217.85 211.77 215.65 211.45 214.01 C 211.45 193.77 211.47 173.52 211.44 153.28 C 208.38 153.27 205.31 153.28 202.25 153.29 L 202.31 152.04 Z" />
</g>
<g id="#f0f0efff">
<path fill="#f0f0ef" opacity="1.00" d=" M 52.51 176.86 C 55.14 176.89 57.79 176.79 60.39 177.22 C 60.52 182.64 60.34 188.06 60.46 193.49 C 62.62 191.55 64.93 189.10 68.12 189.34 C 72.95 188.90 76.61 193.41 77.21 197.84 C 78.07 203.41 77.94 210.35 73.00 214.08 C 69.09 217.06 63.62 216.26 59.96 213.25 C 58.87 214.22 57.78 215.19 56.68 216.16 C 56.38 203.59 56.72 191.02 56.54 178.44 C 55.23 178.34 53.91 178.24 52.60 178.15 L 52.51 176.86 M 60.53 196.41 C 60.27 201.45 60.54 206.51 60.44 211.56 C 62.59 213.74 65.85 215.31 68.91 214.12 C 72.62 212.93 73.17 208.35 73.25 205.03 C 73.08 200.66 74.13 195.43 70.90 191.91 C 67.06 188.99 61.79 192.41 60.53 196.41 Z" />
<path fill="#f0f0ef" opacity="1.00" d=" M 82.58 190.12 C 85.26 189.67 87.99 189.81 90.70 189.77 C 90.88 191.04 91.06 192.32 91.25 193.60 C 93.39 191.69 95.63 189.16 98.78 189.37 C 101.28 189.19 102.65 191.55 104.20 193.08 C 103.15 193.67 102.11 194.27 101.06 194.86 C 100.02 193.04 98.20 191.19 95.88 191.81 C 93.93 192.51 92.00 193.99 91.32 195.99 C 91.14 201.90 91.28 207.81 91.32 213.72 C 93.24 214.08 95.49 213.84 96.99 215.32 C 92.25 215.57 87.48 215.50 82.73 215.34 C 83.79 213.90 85.69 214.04 87.24 213.63 C 87.37 206.29 87.25 198.95 87.38 191.62 C 85.77 191.14 84.16 190.67 82.58 190.12 Z" />
<path fill="#f0f0ef" opacity="1.00" d=" M 107.84 197.99 C 108.68 193.62 112.18 189.50 116.86 189.35 C 121.44 188.70 126.49 191.46 127.68 196.09 C 128.47 198.10 128.09 200.28 127.89 202.36 C 122.49 202.34 117.09 202.36 111.69 202.38 C 111.83 205.96 111.51 210.20 114.21 212.97 C 118.15 216.29 124.86 214.39 125.68 209.04 C 126.26 209.22 127.41 209.57 127.99 209.75 C 125.59 217.50 113.59 217.98 109.57 211.42 C 107.07 207.46 107.06 202.45 107.84 197.99 M 112.79 193.76 C 111.92 196.01 111.79 198.45 111.57 200.83 C 115.60 201.33 119.66 201.06 123.71 201.18 C 124.27 198.82 124.46 196.32 123.56 194.01 C 121.98 189.53 114.55 189.33 112.79 193.76 Z" />
</g>
<g id="#f5f5f5ff">
<path fill="#f5f5f5" opacity="1.00" d=" M 345.11 176.85 C 347.63 176.87 350.15 176.87 352.68 176.87 C 352.70 182.37 352.67 187.87 352.68 193.37 C 355.46 191.46 358.32 189.04 361.93 189.32 C 365.81 189.04 369.27 192.33 369.46 196.15 C 369.80 201.96 369.42 207.79 369.67 213.61 C 371.25 214.01 373.11 214.00 374.29 215.32 C 369.84 215.51 365.36 215.58 360.91 215.27 C 362.31 214.24 364.03 213.92 365.70 213.57 C 365.68 208.06 365.78 202.55 365.68 197.04 C 365.62 194.68 364.80 191.46 361.98 191.20 C 358.12 190.36 354.80 193.04 352.69 195.98 C 352.71 201.85 352.61 207.72 352.76 213.59 C 354.33 214.01 356.20 213.98 357.36 215.33 C 352.91 215.50 348.44 215.58 344.00 215.28 C 345.40 214.24 347.11 213.92 348.79 213.57 C 348.74 201.88 348.91 190.18 348.70 178.50 C 347.48 178.38 346.26 178.28 345.05 178.18 L 345.11 176.85 Z" />
</g>
<g id="#ebebe9ff">
<path fill="#ebebe9" opacity="1.00" d=" M 41.74 178.52 C 43.89 177.75 46.63 178.79 46.20 181.42 C 45.53 184.52 41.42 183.90 40.56 181.24 C 40.86 180.56 41.45 179.20 41.74 178.52 Z" />
<path fill="#ebebe9" opacity="1.00" d=" M 160.75 178.68 C 163.67 176.68 166.55 180.83 164.09 183.08 C 161.28 185.17 157.94 180.81 160.75 178.68 Z" />
</g>
<g id="#f8f8f8ff">
<path fill="#f8f8f8" opacity="1.00" d=" M 381.42 178.63 C 383.49 177.08 386.82 179.52 385.52 181.90 C 384.86 184.18 381.14 184.14 380.47 181.91 C 380.26 180.82 380.25 179.17 381.42 178.63 Z" />
</g>
<g id="#f0f1efff">
<path fill="#f0f1ef" opacity="1.00" d=" M 10.82 180.42 C 15.31 180.19 19.82 180.15 24.31 180.46 C 22.84 181.21 21.22 181.50 19.62 181.79 C 19.44 192.50 19.60 203.21 19.58 213.92 C 23.69 213.89 27.81 213.98 31.93 213.82 C 32.71 211.28 32.92 208.46 34.61 206.30 C 34.97 209.34 34.82 212.39 34.85 215.44 C 26.86 215.41 18.86 215.60 10.87 215.32 C 12.13 214.29 13.62 213.72 15.34 213.62 C 15.34 203.02 15.37 192.41 15.40 181.80 C 13.83 181.50 12.22 181.25 10.82 180.42 Z" />
</g>
<g id="#f4f4f4ff">
<path fill="#f4f4f4" opacity="1.00" d=" M 238.31 180.22 C 246.31 180.07 254.32 180.07 262.32 180.19 C 262.32 183.14 262.43 186.10 262.08 189.04 C 260.65 186.77 260.13 184.13 259.34 181.62 C 255.19 181.39 251.04 181.46 246.90 181.52 C 246.94 186.81 246.69 192.10 247.09 197.38 C 250.14 197.37 253.19 197.38 256.24 197.32 C 256.75 195.41 257.27 193.50 257.91 191.62 C 259.60 195.59 258.27 200.30 258.53 204.55 C 257.00 203.03 256.85 200.76 256.20 198.83 C 253.18 198.72 250.15 198.74 247.13 198.72 C 246.73 203.72 246.77 208.74 247.12 213.74 C 248.93 214.00 250.76 214.25 252.58 214.54 C 252.44 214.78 252.17 215.27 252.04 215.51 C 247.55 215.42 243.07 215.44 238.59 215.48 C 238.67 215.20 238.82 214.63 238.90 214.34 C 240.16 214.13 241.43 213.91 242.70 213.69 C 242.68 203.04 242.76 192.39 242.67 181.73 C 241.18 181.37 239.35 181.59 238.31 180.22 Z" />
<path fill="#f4f4f4" opacity="1.00" d=" M 376.34 190.19 C 379.12 189.52 382.00 189.85 384.83 189.76 C 385.48 197.72 384.96 205.72 385.16 213.71 C 386.44 213.93 387.73 214.16 389.02 214.39 C 389.01 214.67 388.98 215.22 388.96 215.50 C 384.85 214.94 380.31 216.45 376.48 214.70 C 378.01 214.29 379.56 213.92 381.11 213.59 C 381.22 206.27 381.11 198.94 381.21 191.62 C 379.58 191.17 377.94 190.72 376.34 190.19 Z" />
</g>
<g id="#f0f0f0ff">
<path fill="#f0f0f0" opacity="1.00" d=" M 36.91 190.27 C 39.74 189.51 42.69 189.85 45.58 189.80 C 45.57 197.74 45.61 205.68 45.62 213.62 C 47.17 214.05 49.10 213.88 50.14 215.35 C 45.77 215.50 41.38 215.56 37.01 215.31 C 38.27 214.16 39.99 213.95 41.58 213.59 C 41.70 206.23 41.69 198.87 41.61 191.51 C 40.04 191.12 38.47 190.72 36.91 190.27 Z" />
<path fill="#f0f0f0" opacity="1.00" d=" M 132.80 190.19 C 135.44 189.61 138.16 189.78 140.84 189.88 C 141.05 191.35 140.52 194.03 142.85 193.78 C 142.51 194.33 141.83 195.43 141.50 195.98 C 141.35 201.89 141.52 207.81 141.48 213.72 C 143.36 214.13 145.69 213.74 147.09 215.33 C 142.37 215.54 137.62 215.55 132.89 215.30 C 134.07 214.03 135.88 214.03 137.44 213.63 C 137.43 206.27 137.43 198.90 137.49 191.54 C 135.92 191.12 134.34 190.69 132.80 190.19 Z" />
</g>
<g id="#f1f1f1ff">
<path fill="#f1f1f1" opacity="1.00" d=" M 178.96 190.11 C 183.55 188.28 190.54 189.20 192.12 194.65 C 193.36 200.67 192.13 206.89 192.90 212.96 C 194.00 214.67 196.56 213.38 198.22 213.84 C 195.35 216.56 189.93 216.50 188.57 212.24 C 185.89 214.70 182.30 216.53 178.58 215.74 C 173.11 215.24 171.40 206.81 175.99 203.97 C 179.87 201.83 184.47 202.72 188.70 202.56 C 188.47 199.42 189.32 196.00 187.84 193.07 C 186.34 190.10 182.06 189.98 179.54 191.64 C 177.78 193.23 178.18 195.79 178.06 197.92 C 176.82 197.85 175.58 197.77 174.34 197.69 C 174.24 194.54 175.80 191.16 178.96 190.11 M 178.62 204.69 C 176.86 207.37 177.07 210.76 178.62 213.48 C 182.41 215.14 186.26 213.13 188.77 210.26 C 188.74 208.10 188.73 205.95 188.73 203.80 C 185.34 203.79 181.89 203.67 178.62 204.69 Z" />
</g>
<g id="#f3f3f3ff">
<path fill="#f3f3f3" opacity="1.00" d=" M 274.41 189.60 C 278.06 188.83 282.32 189.29 285.05 192.08 C 288.63 195.72 289.20 201.31 288.43 206.13 C 287.85 209.87 285.71 213.61 282.08 215.10 C 277.69 216.81 271.94 216.00 268.99 212.06 C 266.18 208.39 266.10 203.47 266.61 199.08 C 267.12 194.81 270.04 190.57 274.41 189.60 M 275.12 190.95 C 271.76 192.02 270.79 195.94 270.68 199.06 C 270.71 203.12 270.24 207.38 271.81 211.24 C 273.55 215.25 279.74 215.73 282.43 212.48 C 284.35 209.75 284.34 206.23 284.41 203.03 C 284.37 199.46 284.53 195.49 282.28 192.50 C 280.53 190.53 277.52 190.21 275.12 190.95 Z" />
<path fill="#f3f3f3" opacity="1.00" d=" M 299.33 190.22 C 304.58 187.55 313.62 190.01 312.95 197.11 C 311.74 197.30 310.54 197.47 309.34 197.65 C 309.37 195.63 308.99 193.66 308.24 191.79 C 305.76 190.83 302.77 189.85 300.37 191.53 C 297.37 193.33 297.96 198.45 301.14 199.71 C 304.68 201.27 309.13 201.06 311.95 204.06 C 314.70 207.03 313.89 212.25 310.51 214.39 C 305.16 217.59 297.22 215.88 294.57 209.95 C 295.19 209.65 296.42 209.03 297.04 208.73 C 298.06 213.53 303.64 216.06 307.97 213.83 C 310.79 212.78 311.29 208.81 309.28 206.77 C 305.85 203.89 300.54 204.89 297.35 201.61 C 294.03 198.45 295.10 192.08 299.33 190.22 Z" />
<path fill="#f3f3f3" opacity="1.00" d=" M 322.20 194.19 C 325.17 188.33 334.41 187.48 338.53 192.49 C 339.95 194.11 339.94 196.39 340.39 198.38 C 339.10 198.72 337.82 199.04 336.54 199.37 C 336.43 196.73 336.61 193.64 334.52 191.66 C 331.73 189.73 327.20 190.48 325.83 193.77 C 324.11 197.63 324.78 201.95 324.71 206.05 C 324.88 209.14 325.57 213.25 329.11 214.17 C 332.98 215.73 337.50 213.32 337.98 209.07 C 338.82 209.33 339.66 209.59 340.51 209.86 C 337.72 217.94 324.88 217.88 321.71 210.19 C 319.80 205.15 319.65 199.04 322.20 194.19 Z" />
</g>
<g id="#ededecff">
<path fill="#ededec" opacity="1.00" d=" M 142.51 192.05 C 145.54 189.66 150.51 187.79 153.25 191.64 C 154.91 193.36 152.63 194.22 151.25 194.89 C 150.11 191.94 145.95 190.40 143.83 193.33 C 143.39 192.90 142.95 192.48 142.51 192.05 Z" />
</g>
<g id="#f1f1f0ff">
<path fill="#f1f1f0" opacity="1.00" d=" M 155.60 190.02 C 158.53 189.71 161.48 189.80 164.43 189.80 C 164.41 197.74 164.48 205.67 164.44 213.61 C 166.03 213.92 167.77 214.11 168.98 215.32 C 164.65 215.55 160.30 215.51 155.96 215.35 C 157.00 213.94 158.86 214.04 160.40 213.62 C 160.40 206.31 160.53 198.99 160.41 191.68 C 158.82 191.08 157.18 190.63 155.60 190.02 Z" />
</g>
<g id="#ddd698ff">
<path fill="#ddd698" opacity="1.00" d=" M 212.82 219.33 C 215.51 217.89 217.98 216.11 220.50 214.40 C 220.96 214.80 221.87 215.59 222.33 215.99 C 222.33 218.69 222.32 221.39 222.32 224.09 C 219.77 224.66 217.65 226.20 215.80 227.98 C 214.55 225.41 212.59 222.99 212.53 220.03 L 212.82 219.33 Z" />
</g>
<g id="#cfc888ff">
<path fill="#cfc888" opacity="1.00" d=" M 215.80 227.98 C 217.65 226.20 219.77 224.66 222.32 224.09 C 222.23 230.99 221.88 238.65 217.14 244.13 C 214.32 247.63 209.10 248.90 205.03 246.94 C 201.46 244.68 198.40 240.49 199.66 236.06 C 200.56 231.18 206.84 228.29 210.94 231.40 C 214.83 233.93 214.47 239.72 210.95 242.44 C 209.36 242.54 207.65 242.94 206.13 242.25 C 204.37 240.98 203.53 238.40 201.07 238.30 C 200.61 241.95 203.07 244.60 205.90 246.42 C 208.35 246.49 210.80 246.53 213.26 246.53 C 215.33 244.60 217.49 242.49 218.02 239.58 C 219.20 235.57 217.59 231.52 215.80 227.98 Z" />
</g>
</svg>
