<?xml version="1.0" encoding="UTF-8" ?>
<!DOCTYPE svg PUBLIC "-//W3C//DTD SVG 1.1//EN" "http://www.w3.org/Graphics/SVG/1.1/DTD/svg11.dtd">
<svg width="738pt" height="231pt" viewBox="0 0 738 231" version="1.1" xmlns="http://www.w3.org/2000/svg">
<g id="#eee6abff">
<path fill="#eee6ab" opacity="1.00" d=" M 374.90 23.88 C 392.30 23.90 409.70 23.90 427.11 23.88 C 427.11 24.74 427.13 26.47 427.14 27.33 C 422.24 27.31 417.34 27.36 412.45 27.30 C 411.70 32.50 412.01 37.75 411.99 42.98 C 412.00 73.95 412.00 104.92 411.99 135.89 C 405.91 140.69 399.37 144.84 392.76 148.84 C 392.89 149.90 393.01 150.96 393.15 152.02 L 392.98 153.25 C 392.84 152.30 392.58 150.42 392.44 149.48 L 391.67 149.59 C 391.07 142.41 391.68 135.22 391.50 128.03 C 391.52 94.46 391.47 60.90 391.53 27.34 C 385.97 27.34 380.41 27.30 374.86 27.35 C 374.87 26.48 374.89 24.75 374.90 23.88 Z" />
</g>
<g id="#cfc888ff">
<path fill="#cfc888" opacity="1.00" d=" M 411.99 42.98 C 412.01 37.75 411.70 32.50 412.45 27.30 C 412.70 59.86 412.47 92.43 412.56 124.99 C 413.06 135.64 412.77 146.32 412.81 156.98 C 412.70 162.74 412.85 168.57 411.86 174.26 C 411.93 172.85 412.00 171.44 412.06 170.03 C 409.62 172.62 406.91 175.19 403.29 175.91 L 402.85 176.06 C 402.49 170.86 399.99 166.11 397.24 161.80 L 398.34 161.21 C 402.07 159.47 405.58 157.32 408.99 155.02 C 410.11 154.22 411.41 153.32 411.59 151.83 C 412.44 146.56 411.90 141.20 411.99 135.89 C 412.00 104.92 412.00 73.95 411.99 42.98 Z" />
</g>
<g id="#efefeeff">
<path fill="#efefee" opacity="1.00" d=" M 100.19 70.28 C 105.15 70.33 110.12 70.31 115.09 70.30 C 115.13 80.35 114.94 90.41 115.20 100.45 C 117.48 98.42 119.50 96.07 122.14 94.45 C 126.86 92.53 132.23 92.50 136.96 94.44 C 140.93 96.80 143.56 100.77 145.01 105.09 C 146.85 112.37 147.11 120.16 145.30 127.47 C 143.60 134.27 138.08 140.35 130.94 141.38 C 124.98 142.83 118.95 140.53 114.29 136.86 C 113.47 137.53 112.66 138.20 111.85 138.87 C 111.02 139.76 110.17 140.64 109.32 141.51 C 108.93 141.39 108.16 141.14 107.78 141.02 C 107.80 120.02 107.81 99.02 107.82 78.02 C 107.83 76.23 107.70 74.44 107.53 72.66 C 105.21 72.66 102.90 72.50 100.58 72.33 C 100.48 71.82 100.28 70.79 100.19 70.28 M 122.73 96.86 C 120.41 98.47 118.50 100.55 116.68 102.69 C 116.09 104.06 115.06 105.35 115.11 106.92 C 115.04 114.62 115.15 122.32 115.09 130.02 C 115.13 131.39 114.96 132.87 115.68 134.12 C 119.39 138.69 126.18 140.29 131.58 138.02 C 135.64 136.09 137.21 131.38 138.05 127.29 C 138.62 121.57 138.36 115.79 138.35 110.05 C 138.42 105.68 137.11 101.27 134.34 97.85 C 133.19 97.26 132.10 96.57 131.14 95.71 C 129.32 95.72 127.51 95.74 125.70 95.80 C 124.73 96.20 123.74 96.55 122.73 96.86 Z" />
<path fill="#efefee" opacity="1.00" d=" M 157.66 93.70 C 161.91 93.87 166.18 93.94 170.43 93.62 C 171.35 95.82 171.04 98.23 171.10 100.55 C 173.97 99.44 175.57 96.68 178.01 94.97 C 178.53 94.72 179.58 94.21 180.10 93.96 C 181.70 93.43 183.36 93.13 185.01 92.74 C 186.60 93.17 188.22 93.52 189.83 93.92 C 191.36 95.14 192.77 96.51 193.90 98.11 C 194.26 98.79 194.63 99.47 195.00 100.14 C 192.96 101.10 190.93 102.13 189.28 103.70 C 188.61 102.27 187.88 100.87 187.19 99.46 L 186.36 99.66 L 186.55 98.68 C 184.07 97.68 181.43 97.27 178.77 97.67 C 175.70 99.70 172.20 102.21 171.45 106.02 C 171.62 116.44 171.05 126.91 171.82 137.31 C 174.05 139.29 177.83 137.93 180.62 138.68 C 180.73 139.22 180.95 140.29 181.06 140.83 C 172.83 140.75 164.61 140.91 156.38 140.74 C 156.87 136.58 162.34 139.80 164.11 136.94 C 164.38 123.58 164.21 110.20 164.29 96.84 C 161.68 96.15 158.99 95.85 156.35 95.30 C 156.68 94.90 157.33 94.10 157.66 93.70 Z" />
</g>
<g id="#f3f3f3ff">
<path fill="#f3f3f3" opacity="1.00" d=" M 636.34 70.21 C 641.31 70.17 646.28 70.21 651.25 70.20 C 651.20 80.29 651.15 90.38 651.27 100.47 C 654.66 98.41 657.27 95.23 661.14 93.93 C 667.77 91.70 676.09 92.71 680.07 99.09 C 683.26 105.94 681.93 113.67 682.21 120.97 C 682.41 126.68 681.70 132.46 682.73 138.11 C 684.98 138.21 687.23 138.43 689.48 138.66 C 689.58 139.20 689.78 140.26 689.88 140.80 C 682.36 140.81 674.84 140.81 667.32 140.80 C 667.40 140.28 667.55 139.24 667.62 138.72 C 669.83 138.45 672.05 138.24 674.30 138.12 C 675.44 133.53 674.68 128.74 674.90 124.05 C 674.67 116.63 675.48 109.13 674.20 101.77 C 673.12 99.89 671.86 98.13 670.20 96.73 C 666.74 95.80 663.10 95.93 659.79 97.35 C 655.51 99.63 650.55 103.62 651.19 109.01 C 651.26 117.69 651.14 126.37 651.25 135.05 C 651.16 136.22 651.66 137.26 652.24 138.24 C 654.31 138.23 656.40 138.45 658.47 138.65 C 658.58 139.19 658.78 140.26 658.88 140.80 C 651.36 140.81 643.84 140.81 636.33 140.80 C 636.40 140.28 636.54 139.24 636.61 138.72 C 638.83 138.45 641.06 138.24 643.30 138.12 C 644.15 135.15 643.86 132.04 643.90 128.99 C 643.89 113.35 643.89 97.71 643.90 82.06 C 643.86 78.99 644.16 75.85 643.30 72.86 C 641.05 72.72 638.83 72.52 636.60 72.35 C 636.53 71.81 636.40 70.74 636.34 70.21 Z" />
<path fill="#f3f3f3" opacity="1.00" d=" M 442.20 76.01 C 456.59 76.09 471.01 75.74 485.40 76.20 C 485.29 80.99 485.28 85.80 485.40 90.59 C 484.90 90.71 483.91 90.95 483.41 91.07 C 482.36 87.23 481.13 83.43 480.29 79.53 C 478.07 78.28 475.47 78.49 473.03 78.46 C 467.76 78.49 462.49 78.45 457.23 78.49 C 457.20 88.21 457.19 97.93 457.23 107.65 C 462.92 107.60 468.63 107.92 474.30 107.41 C 474.99 104.40 475.92 101.45 476.45 98.41 C 477.00 98.31 478.09 98.12 478.64 98.03 C 478.57 105.34 478.56 112.66 478.64 119.97 C 478.11 119.89 477.04 119.72 476.51 119.64 C 475.96 116.57 475.08 113.57 474.23 110.57 C 468.59 109.90 462.90 110.29 457.24 110.24 C 457.47 119.53 456.58 128.91 457.75 138.13 C 460.67 138.21 463.59 138.50 466.52 138.73 C 466.60 139.25 466.77 140.29 466.86 140.80 C 458.56 140.82 450.25 140.78 441.95 140.83 C 442.05 140.28 442.23 139.18 442.33 138.63 C 444.39 138.45 446.45 138.27 448.54 138.23 C 449.72 135.64 449.32 132.76 449.39 130.00 C 449.30 112.95 449.60 95.90 449.23 78.85 C 446.90 78.50 444.55 78.28 442.21 78.08 C 442.21 77.56 442.20 76.53 442.20 76.01 Z" />
<path fill="#f3f3f3" opacity="1.00" d=" M 503.12 94.96 C 510.02 91.93 518.39 92.03 524.95 95.95 C 534.67 103.59 535.27 117.74 532.10 128.76 C 529.91 134.61 525.23 139.71 518.98 141.11 C 513.35 142.37 507.24 141.81 502.19 138.95 C 498.05 136.54 495.58 132.21 493.92 127.86 C 492.17 119.71 491.96 110.89 495.39 103.14 C 497.33 99.86 499.76 96.87 503.12 94.96 M 508.38 95.65 C 508.31 95.95 508.17 96.56 508.10 96.86 L 506.92 96.33 C 505.80 97.46 504.67 98.57 503.54 99.67 L 503.85 100.85 L 502.70 100.44 C 502.58 101.54 502.30 102.61 501.87 103.63 C 500.14 109.27 500.78 115.18 500.67 120.98 C 500.58 125.17 501.51 129.31 502.66 133.31 C 504.58 135.43 506.35 138.18 509.37 138.73 C 513.02 140.00 516.95 139.19 520.24 137.34 C 520.92 136.65 521.61 135.97 522.31 135.29 C 524.33 131.88 525.45 127.99 525.54 124.02 C 525.82 116.79 526.11 109.40 524.23 102.35 C 523.96 102.29 523.43 102.17 523.16 102.12 L 523.66 100.86 C 521.88 98.83 519.93 96.95 517.56 95.63 C 514.50 95.23 511.43 95.29 508.38 95.65 Z" />
<path fill="#f3f3f3" opacity="1.00" d=" M 553.07 94.41 C 558.73 92.39 565.15 92.19 570.78 94.38 C 575.13 96.20 578.06 100.44 578.29 105.14 C 578.01 105.89 577.74 106.65 577.49 107.41 C 575.88 107.56 574.27 107.70 572.68 107.78 C 572.32 108.03 571.60 108.53 571.24 108.78 C 571.29 105.81 571.97 102.55 570.38 99.87 C 569.43 98.12 567.69 97.03 566.24 95.75 C 563.09 95.26 559.90 95.27 556.76 95.73 C 555.02 97.09 553.36 98.57 552.17 100.45 L 551.70 100.41 C 551.74 102.38 551.74 104.36 551.69 106.33 C 552.78 108.77 554.59 110.73 556.73 112.31 C 562.40 113.91 568.34 114.75 573.65 117.47 C 575.27 118.86 576.81 120.36 578.14 122.05 C 579.63 125.47 579.77 129.26 578.78 132.83 C 577.29 136.10 574.82 139.01 571.34 140.20 C 565.23 142.59 558.38 142.06 552.40 139.60 C 550.39 138.30 548.49 136.84 546.96 134.99 C 546.24 133.42 545.49 131.88 544.78 130.32 C 545.96 129.89 547.16 129.49 548.38 129.11 C 548.68 128.90 549.29 128.49 549.59 128.29 C 550.15 131.76 551.76 135.11 554.67 137.22 C 556.36 137.84 558.04 138.53 559.72 139.23 C 563.76 139.41 568.21 139.20 571.39 136.35 C 574.25 133.63 573.98 129.08 572.34 125.79 C 571.61 125.13 570.90 124.47 570.19 123.82 C 568.83 123.21 567.47 122.59 566.13 121.96 C 559.29 120.02 550.26 119.46 546.98 112.01 C 544.55 105.57 546.65 97.60 553.07 94.41 Z" />
<path fill="#f3f3f3" opacity="1.00" d=" M 600.04 95.97 C 606.20 92.02 614.45 91.85 620.99 94.96 C 626.20 98.02 629.24 104.36 627.62 110.30 C 625.47 110.52 623.33 110.75 621.18 110.93 C 621.59 106.11 621.29 100.68 617.53 97.14 L 617.53 96.74 C 614.04 95.15 610.24 95.14 606.53 95.74 L 606.60 96.29 C 600.98 99.20 599.87 106.23 599.74 111.94 C 599.97 120.08 598.59 129.17 603.68 136.22 C 606.97 138.89 611.21 139.50 615.33 139.27 C 617.32 138.37 619.30 137.39 621.11 136.14 C 621.74 134.85 622.38 133.57 623.03 132.28 C 623.23 131.51 623.63 129.97 623.83 129.20 C 625.44 129.35 626.98 129.90 628.54 130.33 C 627.24 133.23 625.94 136.33 623.29 138.27 C 618.36 141.83 611.88 142.40 606.08 141.10 C 599.50 139.74 594.66 134.15 592.89 127.86 C 591.01 118.63 590.82 108.32 596.00 100.08 C 597.21 98.59 598.56 97.21 600.04 95.97 Z" />
<path fill="#f3f3f3" opacity="1.00" d=" M 695.60 95.62 C 695.67 95.16 695.82 94.25 695.90 93.80 C 700.74 93.78 705.60 93.79 710.45 93.79 C 710.45 107.15 710.45 120.51 710.47 133.88 C 710.46 135.36 710.86 136.80 711.32 138.20 C 713.44 138.26 715.56 138.47 717.68 138.65 C 717.77 139.19 717.95 140.28 718.04 140.83 C 710.58 140.73 703.13 140.92 695.68 140.74 C 695.73 140.29 695.81 139.37 695.85 138.92 C 698.29 138.22 701.00 138.51 703.27 137.18 C 703.19 123.81 703.22 110.44 703.30 97.08 C 700.84 96.12 698.22 95.70 695.60 95.62 Z" />
</g>
<g id="#ebebe9ff">
<path fill="#ebebe9" opacity="1.00" d=" M 82.47 72.31 C 84.92 72.24 87.05 73.30 88.73 75.03 C 88.84 77.48 88.82 80.03 86.98 81.89 C 86.62 81.75 85.89 81.47 85.52 81.32 L 85.52 82.37 C 84.78 82.39 83.30 82.45 82.56 82.48 L 82.52 81.98 C 81.26 81.56 80.29 80.65 79.23 79.90 C 79.28 77.29 78.76 72.92 82.62 73.17 L 82.47 72.31 Z" />
<path fill="#ebebe9" opacity="1.00" d=" M 300.49 72.29 C 302.13 72.46 303.76 72.78 305.25 73.53 C 305.61 73.98 306.34 74.88 306.71 75.33 C 306.91 77.70 306.67 80.07 304.99 81.89 C 304.62 81.75 303.88 81.48 303.51 81.35 L 303.52 82.37 C 302.78 82.40 301.31 82.45 300.57 82.48 L 300.53 81.96 C 299.25 81.59 298.30 80.65 297.27 79.87 C 297.29 78.25 297.30 76.62 297.31 74.99 C 298.29 74.18 299.15 73.09 300.59 73.16 L 300.49 72.29 Z" />
</g>
<g id="#f5f5f5ff">
<path fill="#f5f5f5" opacity="1.00" d=" M 703.96 72.79 C 706.44 72.25 709.73 72.12 711.06 74.77 C 712.83 77.35 711.26 80.56 709.07 82.29 C 706.97 82.57 704.93 82.17 702.97 81.49 C 701.44 78.68 701.13 74.89 703.96 72.79 Z" />
</g>
<g id="#ededebff">
<path fill="#ededeb" opacity="1.00" d=" M 24.70 76.30 C 32.55 76.45 40.42 75.97 48.25 76.57 C 46.45 79.07 43.04 78.17 40.40 78.63 C 39.68 91.56 40.26 104.53 40.11 117.48 C 37.60 118.45 34.94 118.89 32.26 119.00 C 32.26 105.60 32.31 92.20 32.30 78.80 C 30.08 78.50 27.86 78.28 25.63 78.10 C 25.40 77.65 24.93 76.75 24.70 76.30 Z" />
<path fill="#ededeb" opacity="1.00" d=" M 272.64 93.44 C 276.02 92.95 279.61 92.75 282.71 94.47 C 283.83 95.63 284.94 96.81 285.93 98.10 C 286.29 98.81 286.67 99.51 287.05 100.21 C 285.91 100.72 284.78 101.22 283.65 101.71 C 282.97 102.40 282.30 103.10 281.64 103.80 C 280.86 102.35 280.01 100.92 279.19 99.49 L 278.45 99.54 L 278.52 98.69 C 276.08 97.71 273.48 97.18 270.88 97.78 C 269.73 98.34 268.57 98.84 267.38 99.29 C 266.69 97.15 267.50 95.97 269.87 96.11 L 269.00 95.18 C 270.20 94.82 271.42 94.48 272.64 94.16 L 272.64 93.44 Z" />
</g>
<g id="#f0f0efff">
<path fill="#f0f0ef" opacity="1.00" d=" M 211.12 95.03 C 217.65 91.79 225.69 92.29 231.95 95.96 C 234.62 98.13 236.95 100.73 238.04 104.05 C 239.54 108.17 239.23 112.55 238.75 116.82 C 228.93 116.60 219.10 116.85 209.28 116.69 C 209.04 120.85 209.32 125.02 209.88 129.15 C 210.24 130.17 210.57 131.21 210.87 132.25 C 214.20 140.51 227.82 142.07 232.38 134.17 C 233.31 132.54 233.77 130.71 234.38 128.95 C 235.90 129.44 237.41 129.93 238.92 130.41 C 237.46 133.52 236.11 137.13 232.83 138.76 C 226.38 142.74 218.21 142.43 211.39 139.60 C 208.21 137.81 205.74 135.08 203.99 131.91 C 202.08 127.55 200.96 122.80 201.24 118.03 C 200.95 111.07 202.15 103.43 207.19 98.24 C 207.45 97.98 207.95 97.47 208.21 97.21 C 209.15 96.46 210.12 95.72 211.12 95.03 M 210.77 101.67 C 210.47 102.69 210.13 103.69 209.74 104.67 C 209.46 107.93 209.19 111.19 209.11 114.46 C 216.58 114.49 224.05 114.42 231.52 114.50 C 231.89 110.58 231.83 106.65 231.29 102.75 C 230.89 101.79 230.51 100.82 230.16 99.85 C 228.91 98.96 227.64 97.99 227.16 96.46 C 226.75 96.54 225.92 96.70 225.50 96.78 L 225.80 95.62 C 222.72 95.34 219.62 95.20 216.54 95.55 C 214.02 96.93 211.79 98.91 210.77 101.67 Z" />
<path fill="#f0f0ef" opacity="1.00" d=" M 249.57 93.76 C 253.92 93.85 258.27 93.86 262.62 93.74 C 263.01 96.11 263.05 98.53 263.57 100.89 L 266.07 98.27 C 266.64 98.84 267.23 99.42 267.82 99.99 C 267.10 100.56 266.39 101.13 265.68 101.71 C 264.99 103.12 263.50 104.27 263.60 105.96 C 263.53 114.98 263.65 124.00 263.60 133.03 C 263.51 134.79 263.82 136.54 264.30 138.23 C 267.10 138.21 269.90 138.48 272.69 138.68 C 272.77 139.22 272.94 140.29 273.02 140.82 C 264.93 140.79 256.84 140.80 248.76 140.82 C 248.93 140.26 249.26 139.13 249.42 138.57 C 251.35 138.43 253.27 138.27 255.20 138.20 C 255.46 137.95 255.98 137.44 256.24 137.19 C 256.26 123.68 256.20 110.17 256.37 96.67 C 253.85 96.25 251.34 95.75 248.79 95.57 C 248.98 95.11 249.38 94.21 249.57 93.76 Z" />
</g>
<g id="#f1f1f1ff">
<path fill="#f1f1f1" opacity="1.00" d=" M 333.05 93.99 C 338.88 92.36 345.34 92.44 350.88 95.04 C 352.45 96.19 353.85 97.55 355.08 99.05 C 356.77 102.42 357.56 106.20 357.59 109.96 C 357.61 118.42 357.53 126.88 357.71 135.34 C 358.39 136.32 358.86 137.52 359.90 138.20 C 362.37 139.07 365.06 135.79 367.10 138.36 C 364.09 141.02 359.98 141.85 356.08 141.14 C 352.84 140.48 351.42 137.48 350.09 134.81 C 348.28 136.12 346.65 137.66 344.94 139.09 C 339.31 141.91 331.99 143.19 326.51 139.37 C 320.35 134.28 320.44 122.79 328.01 118.99 C 335.19 116.40 342.89 117.40 350.36 117.35 C 349.88 111.85 351.17 106.14 349.17 100.86 C 348.91 100.27 348.38 99.10 348.12 98.51 L 347.20 98.62 L 347.45 97.88 C 346.41 97.18 345.41 96.44 344.43 95.69 C 341.55 95.25 338.64 95.23 335.77 95.74 C 335.28 96.02 334.29 96.60 333.79 96.88 C 330.26 100.29 330.62 105.34 330.62 109.83 C 330.31 109.55 329.71 108.98 329.40 108.69 C 327.67 108.66 325.95 108.56 324.23 108.47 C 324.05 105.23 324.42 102.02 326.07 99.18 C 326.93 98.00 327.95 96.94 329.08 96.00 C 330.39 95.31 331.70 94.62 333.05 93.99 M 333.55 120.65 C 332.57 121.45 330.78 121.61 330.56 123.08 C 328.77 127.15 329.53 131.70 330.68 135.83 L 331.70 135.05 L 331.18 136.56 L 332.61 136.38 L 332.28 137.36 C 337.11 139.49 342.21 137.94 346.47 135.29 L 346.48 134.37 L 347.73 134.55 L 347.45 133.44 L 348.75 133.70 L 348.20 132.37 L 349.76 132.68 L 349.14 130.90 L 350.48 131.93 C 350.37 127.78 350.33 123.62 350.53 119.48 C 344.88 120.09 338.98 118.59 333.55 120.65 Z" />
</g>
<g id="#f1f1f0ff">
<path fill="#f1f1f0" opacity="1.00" d=" M 73.45 93.78 C 78.20 93.84 82.96 93.84 87.71 93.78 C 87.67 108.37 87.82 122.97 87.74 137.57 L 88.72 137.27 L 88.45 138.19 C 91.05 138.45 94.37 137.68 96.07 140.26 C 88.47 141.48 80.67 140.46 72.99 140.83 C 73.07 140.29 73.21 139.22 73.29 138.68 C 75.25 138.49 77.22 138.29 79.20 138.17 C 79.48 137.92 80.03 137.42 80.31 137.17 C 80.71 123.66 80.65 110.13 80.38 96.61 C 77.92 96.25 75.47 95.77 72.99 95.60 L 73.45 93.78 Z" />
</g>
<g id="#f0f0f0ff">
<path fill="#f0f0f0" opacity="1.00" d=" M 291.69 93.91 C 296.35 93.65 301.03 93.92 305.70 93.78 C 305.72 107.18 305.75 120.58 305.77 133.98 C 305.72 135.43 306.08 136.84 306.49 138.22 C 308.51 138.25 310.52 138.39 312.54 138.51 C 312.71 139.09 313.05 140.24 313.22 140.82 C 305.81 140.80 298.39 140.80 290.97 140.82 C 291.06 140.27 291.23 139.17 291.31 138.62 C 293.37 138.45 295.42 138.27 297.49 138.26 C 298.13 136.91 298.50 135.47 298.38 133.97 C 298.37 121.51 298.48 109.05 298.40 96.59 C 295.82 96.25 293.26 95.77 290.68 95.50 L 291.69 93.91 Z" />
</g>
<g id="#f4f4f4ff">
<path fill="#f4f4f4" opacity="1.00" d=" M 32.26 119.00 C 34.94 118.89 37.60 118.45 40.11 117.48 C 40.09 124.40 40.08 131.32 40.14 138.23 C 47.37 138.20 54.59 138.20 61.82 138.24 C 62.14 137.79 62.77 136.91 63.09 136.47 C 63.62 134.00 64.31 131.57 64.98 129.13 C 65.62 127.74 65.35 124.68 67.67 125.29 C 68.68 130.31 67.81 135.66 68.12 140.81 C 53.67 140.79 39.22 140.78 24.77 140.81 C 24.94 140.25 25.27 139.13 25.44 138.57 C 27.36 138.46 29.27 138.30 31.19 138.21 C 31.46 137.96 32.00 137.45 32.26 137.20 C 32.18 131.13 32.28 125.07 32.26 119.00 Z" />
</g>
<g id="#dfd799ff">
<path fill="#dfd799" opacity="1.00" d=" M 392.76 148.84 C 399.37 144.84 405.91 140.69 411.99 135.89 C 411.90 141.20 412.44 146.56 411.59 151.83 C 411.41 153.32 410.11 154.22 408.99 155.02 C 405.58 157.32 402.07 159.47 398.34 161.21 L 397.02 161.67 C 396.60 160.29 396.02 158.99 395.37 157.71 C 394.79 156.56 394.23 155.41 393.63 154.28 C 393.51 153.71 393.27 152.58 393.15 152.02 C 393.01 150.96 392.89 149.90 392.76 148.84 Z" />
</g>
<g id="#d3cc8cff">
<path fill="#d3cc8c" opacity="1.00" d=" M 377.81 167.87 C 378.77 167.48 379.73 167.10 380.70 166.70 C 382.55 166.70 384.41 166.70 386.27 166.72 C 387.24 167.10 388.24 167.46 389.24 167.78 C 391.83 168.87 393.76 170.93 395.74 172.85 L 395.64 173.97 C 395.52 174.77 395.42 175.58 395.32 176.38 C 389.83 180.36 384.13 184.04 378.11 187.16 C 379.06 188.23 380.02 189.30 380.92 190.41 C 380.67 190.43 380.17 190.46 379.92 190.48 C 379.51 189.44 378.82 188.65 377.87 188.10 C 377.44 186.08 376.32 184.44 374.35 183.60 C 374.36 184.86 374.38 187.39 374.39 188.66 L 375.70 188.42 C 375.53 188.89 375.21 189.82 375.04 190.29 L 376.08 190.50 C 376.71 191.94 377.78 193.10 379.18 193.84 C 379.49 194.09 380.11 194.58 380.42 194.83 C 379.09 195.69 377.76 196.54 376.44 197.40 L 375.97 197.70 C 375.22 196.84 374.45 196.00 373.66 195.20 L 373.59 194.35 L 372.64 194.38 C 372.25 193.37 371.86 192.37 371.48 191.37 L 370.30 191.53 C 370.48 191.04 370.84 190.07 371.03 189.59 L 369.79 189.69 C 368.83 185.35 368.29 180.95 369.78 176.66 C 370.79 174.13 372.39 171.92 374.40 170.09 L 374.49 169.84 C 375.66 169.29 376.75 168.61 377.81 167.87 Z" />
</g>
<g id="#beb878ff">
<path fill="#beb878" opacity="1.00" d=" M 403.29 175.91 C 406.91 175.19 409.62 172.62 412.06 170.03 C 412.00 171.44 411.93 172.85 411.86 174.26 C 411.67 175.85 411.38 177.42 411.17 179.01 C 410.06 183.30 408.30 187.35 406.31 191.30 C 402.85 195.58 398.71 199.83 393.06 200.87 C 387.49 201.93 380.65 201.72 376.44 197.40 C 377.76 196.54 379.09 195.69 380.42 194.83 C 381.26 195.24 382.12 195.65 382.97 196.07 C 387.84 197.31 393.93 197.72 397.65 193.68 C 402.61 189.30 403.75 182.21 403.29 175.91 Z" />
</g>
<g id="#c7c080ff">
<path fill="#c7c080" opacity="1.00" d=" M 395.64 173.97 L 395.97 172.72 C 397.39 176.34 397.48 180.22 397.36 184.06 C 396.45 185.84 395.39 187.54 394.20 189.14 C 393.24 189.83 392.30 190.55 391.38 191.29 C 388.16 192.03 384.85 192.04 381.64 191.31 L 380.92 190.41 C 380.02 189.30 379.06 188.23 378.11 187.16 C 384.13 184.04 389.83 180.36 395.32 176.38 C 395.42 175.58 395.52 174.77 395.64 173.97 Z" />
</g>
</svg>
