<svg xmlns="http://www.w3.org/2000/svg" viewBox="0 0 100 100" width="500" height="500" class="illustration"><defs><style>.cls-1{fill:#ffd44d;stroke-miterlimit:10;}.cls-1,.cls-2,.cls-3{stroke:#231f20;stroke-width:1.5px;}.cls-2{fill:#545454;}.cls-2,.cls-3{stroke-linejoin:bevel;}.cls-3{fill:none;}</style></defs><g id="Layer_2" data-name="Layer 2"><path class="cls-1" d="M50,23.71l9,24.07a2.14,2.14,0,0,1-.44,3.09c-2.34,1.66-4.9,4.58-4.9,6.44v6.4H46.34v-6.4c0-1.86-2.56-4.78-4.9-6.44A2.14,2.14,0,0,1,41,47.78Z"></path><line class="cls-1" x1="50" y1="23.71" x2="50" y2="48.72"></line><circle class="cls-2" cx="50" cy="48.72" r="2.49"></circle><path class="cls-2" d="M44.5,57.11H55.59V82.87a5.54,5.54,0,0,1-5.54,5.54h0a5.55,5.55,0,0,1-5.55-5.54Z"></path><path class="cls-3" d="M29.35,36.29a20.65,20.65,0,0,1,41.3,0"></path><rect class="cls-2" x="47.9" y="13.54" width="4.21" height="4.21"></rect><rect class="cls-2" x="68.55" y="35.18" width="4.21" height="4.21"></rect><rect class="cls-2" x="27.24" y="35.18" width="4.21" height="4.21"></rect><line class="cls-2" x1="27.98" y1="13.95" x2="72.61" y2="13.95"></line><circle class="cls-2" cx="26.12" cy="13.95" r="2.37"></circle><circle class="cls-2" cx="73.88" cy="13.95" r="2.37"></circle></g></svg>